<?xml version="1.0" encoding="UTF-8"?>
<!DOCTYPE svg PUBLIC "-//W3C//DTD SVG 1.0//EN" "http://www.w3.org/TR/2001/REC-SVG-20010904/DTD/svg10.dtd">
<!-- Creator: CorelDRAW X7 -->
<svg xmlns="http://www.w3.org/2000/svg" xml:space="preserve" width="210mm" height="297mm" version="1.0" style="shape-rendering:geometricPrecision; text-rendering:geometricPrecision; image-rendering:optimizeQuality; fill-rule:evenodd; clip-rule:evenodd"
viewBox="0 0 21000 29700"
 xmlns:xlink="http://www.w3.org/1999/xlink">
 <defs>
  <style type="text/css">
   <![CDATA[
    .str0 {stroke:#2B2A29;stroke-width:20}
    .fil0 {fill:#FEFEFE}
    .fil1 {fill:#010101}
   ]]>
  </style>
 </defs>
 <g id="Слой_x0020_1">
  <metadata id="CorelCorpID_0Corel-Layer"/>
  <rect class="fil0 str0" x="1857" y="6716" width="18126" height="17671"/>
  <g id="_232984894112">
   <path class="fil1" d="M3651 15551c0,-930 197,-1854 529,-2681 43,-109 91,-250 141,-353l7472 4134c466,283 1096,585 1587,882l1593 877c131,76 263,145 405,230l1608 862c-31,115 -39,85 -105,177l-381 501c-1220,1395 -2564,2219 -4448,2538 -130,22 -392,58 -535,64 -767,36 -1411,39 -2173,-154 -1407,-358 -2516,-919 -3533,-1936 -458,-458 -866,-962 -1184,-1532 -344,-620 -611,-1236 -779,-1972 -106,-468 -197,-1091 -197,-1637zm7232 -7268c2557,0 4830,1395 5969,3097 1163,1739 1633,3624 1135,5808 -58,254 -122,478 -203,713l-269 684c-268,-142 -509,-284 -777,-423 -265,-138 -516,-302 -787,-448l-9513 -5268c-536,-276 -1057,-601 -1588,-882 1297,-1937 3509,-3281 6033,-3281zm-8291 6950c0,1446 184,2671 764,3822 116,230 207,439 336,652 138,226 249,406 396,628 142,214 274,358 429,558l483 540c107,108 148,135 263,231 99,83 154,163 252,242l1851 1183c2105,1053 4973,1050 7080,12 227,-112 421,-219 647,-342 442,-240 791,-518 1182,-828 116,-91 156,-127 260,-233l283 -247c62,-67 51,-71 107,-140 108,-128 205,-187 358,-383l449 -574c288,-391 510,-829 735,-1275 671,-1328 926,-3129 700,-4722 -118,-825 -342,-1568 -688,-2310 -62,-133 -85,-223 -154,-340 -220,-375 -279,-519 -563,-919l-1159 -1346 -539 -448c-1231,-983 -3146,-1769 -4758,-1769l-776 0c-1482,0 -3368,728 -4436,1527 -200,149 -361,273 -559,428 -512,400 -1042,1043 -1431,1568 -531,715 -1035,1828 -1258,2728 -124,499 -254,1155 -254,1757z"/>
   <path class="fil1" d="M6579 19960l8678 0c217,0 514,-154 600,-282l-2886 -1594c-152,-92 -288,-145 -430,-240 -88,130 -315,294 -470,376 -1770,939 -3446,-410 -3446,-1964 0,-197 66,-378 70,-564 -143,-34 -953,-506 -1152,-612l-1134 -630c-135,-81 -661,-388 -783,-416 0,461 -38,4896 21,5130 95,377 490,796 932,796z"/>
   <path class="fil1" d="M8801 12905c-186,0 -52,0 -106,35 133,31 397,191 541,271l1313 735c205,112 105,17 334,17 877,0 1611,463 2004,1136 187,321 180,221 591,467 235,139 457,242 684,374 219,128 455,245 678,380l1369 748c0,-847 0,-1694 0,-2540 0,-479 52,-818 -146,-1124 -145,-225 -448,-499 -806,-499l-2223 0 0 -812c0,-460 -490,-952 -952,-952l-2328 0c-353,0 -681,291 -820,521 -190,312 -133,762 -133,1243z"/>
   <path class="fil1" d="M10847 17491c513,0 390,-68 706,-141l0 -71c-118,-27 -148,-55 -241,-112 -83,-52 -139,-74 -229,-123 -166,-92 -306,-178 -471,-270 -168,-93 -289,-157 -459,-247l-470 -271c0,412 132,644 343,856 200,201 438,379 821,379z"/>
  </g>
 </g>
</svg>
